<svg xmlns="http://www.w3.org/2000/svg" viewBox="0 0 32 32">
  <defs>
    <linearGradient id="g" x1="0%" y1="0%" x2="100%" y2="100%">
      <stop offset="0%" stop-color="#3b82f6"/>
      <stop offset="50%" stop-color="#7c3aed"/>
      <stop offset="100%" stop-color="#a855f7"/>
    </linearGradient>
    <filter id="w" x="-20%" y="-20%" width="140%" height="140%">
      <feGaussianBlur stdDeviation="0.5"/>
      <feComposite in="SourceGraphic" in2="" operator="over"/>
    </filter>
    <radialGradient id="c" cx="50%" cy="50%" r="50%">
      <stop offset="0%" stop-color="#fff" stop-opacity="1"/>
      <stop offset="60%" stop-color="#93c5fd" stop-opacity=".5"/>
      <stop offset="100%" stop-color="#2563eb" stop-opacity="0"/>
    </radialGradient>
  </defs>
  <!-- Left hemisphere -->
  <path d="M14.8 3.8C10 3.8 3.5 8.2 3.5 16s6.5 12.2 11.3 12.2Z" fill="url(#g)" opacity=".92" filter="url(#w)"/>
  <!-- Right hemisphere -->
  <path d="M17.2 3.8C22 3.8 28.5 8.2 28.5 16s-6.5 12.2-11.3 12.2Z" fill="url(#g)" opacity=".82" filter="url(#w)"/>
  <!-- Sulci left -->
  <path d="M5 9.7q3.6 1.2 9 .4" fill="none" stroke="#fff" stroke-width=".5" opacity=".25"/>
  <path d="M4.5 16q3.6 1.4 9 .5" fill="none" stroke="#fff" stroke-width=".5" opacity=".25"/>
  <path d="M5 22.3q3.6 1.1 9 .3" fill="none" stroke="#fff" stroke-width=".5" opacity=".25"/>
  <!-- Sulci right -->
  <path d="M27 9.7q-3.6 1.2-9 .4" fill="none" stroke="#fff" stroke-width=".5" opacity=".25"/>
  <path d="M27.5 16q-3.6 1.4-9 .5" fill="none" stroke="#fff" stroke-width=".5" opacity=".25"/>
  <path d="M27 22.3q-3.6 1.1-9 .3" fill="none" stroke="#fff" stroke-width=".5" opacity=".25"/>
  <!-- Neural connections -->
  <line x1="9" y1="9" x2="16" y2="16" stroke="#fff" stroke-width=".3" opacity=".15"/>
  <line x1="23" y1="9" x2="16" y2="16" stroke="#fff" stroke-width=".3" opacity=".15"/>
  <line x1="7.5" y1="16" x2="16" y2="16" stroke="#fff" stroke-width=".3" opacity=".15"/>
  <line x1="24.5" y1="16" x2="16" y2="16" stroke="#fff" stroke-width=".3" opacity=".15"/>
  <line x1="9" y1="23" x2="16" y2="16" stroke="#fff" stroke-width=".3" opacity=".12"/>
  <line x1="23" y1="23" x2="16" y2="16" stroke="#fff" stroke-width=".3" opacity=".12"/>
  <!-- Neural nodes -->
  <circle cx="9" cy="9" r="1.2" fill="#c4b5fd" opacity=".85"/>
  <circle cx="23" cy="9" r="1.2" fill="#c4b5fd" opacity=".85"/>
  <circle cx="7.5" cy="16" r="1" fill="#c4b5fd" opacity=".7"/>
  <circle cx="24.5" cy="16" r="1" fill="#c4b5fd" opacity=".7"/>
  <circle cx="9" cy="23" r="1" fill="#c4b5fd" opacity=".65"/>
  <circle cx="23" cy="23" r="1" fill="#c4b5fd" opacity=".65"/>
  <!-- Central core -->
  <circle cx="16" cy="16" r="2.2" fill="url(#c)"/>
  <circle cx="16" cy="16" r="1.1" fill="#fff" opacity=".95"/>
  <circle cx="16" cy="16" r=".6" fill="url(#g)" opacity=".7"/>
</svg>
