<svg xmlns="http://www.w3.org/2000/svg" viewBox="0 0 512 512">
  <!-- Left hemisphere -->
  <path d="M 238 60 C 160 60, 56 130, 56 256 C 56 382, 160 452, 238 452 Z"
        fill="#ffffff" opacity="0.95"/>
  <!-- Right hemisphere -->
  <path d="M 274 60 C 352 60, 456 130, 456 256 C 456 382, 352 452, 274 452 Z"
        fill="#ffffff" opacity="0.85"/>
  <!-- Sulci left -->
  <path d="M 82 155 Q 140 175, 225 162" fill="none" stroke="#000" stroke-width="3" stroke-linecap="round" opacity="0.12"/>
  <path d="M 72 256 Q 130 278, 225 264" fill="none" stroke="#000" stroke-width="3" stroke-linecap="round" opacity="0.12"/>
  <path d="M 82 357 Q 140 375, 225 362" fill="none" stroke="#000" stroke-width="3" stroke-linecap="round" opacity="0.12"/>
  <!-- Sulci right -->
  <path d="M 430 155 Q 372 175, 287 162" fill="none" stroke="#000" stroke-width="3" stroke-linecap="round" opacity="0.12"/>
  <path d="M 440 256 Q 382 278, 287 264" fill="none" stroke="#000" stroke-width="3" stroke-linecap="round" opacity="0.12"/>
  <path d="M 430 357 Q 372 375, 287 362" fill="none" stroke="#000" stroke-width="3" stroke-linecap="round" opacity="0.12"/>
  <!-- Neural connections -->
  <line x1="145" y1="145" x2="256" y2="256" stroke="#000" stroke-width="1.5" opacity="0.06"/>
  <line x1="367" y1="145" x2="256" y2="256" stroke="#000" stroke-width="1.5" opacity="0.06"/>
  <line x1="145" y1="367" x2="256" y2="256" stroke="#000" stroke-width="1.5" opacity="0.06"/>
  <line x1="367" y1="367" x2="256" y2="256" stroke="#000" stroke-width="1.5" opacity="0.06"/>
  <!-- Neural nodes -->
  <circle cx="145" cy="145" r="8" fill="#ffffff" opacity="0.6"/>
  <circle cx="367" cy="145" r="8" fill="#ffffff" opacity="0.6"/>
  <circle cx="145" cy="367" r="7" fill="#ffffff" opacity="0.5"/>
  <circle cx="367" cy="367" r="7" fill="#ffffff" opacity="0.5"/>
  <!-- Central core -->
  <circle cx="256" cy="256" r="10" fill="#ffffff"/>
</svg>
