<svg xmlns="http://www.w3.org/2000/svg" viewBox="0 0 32 32"><defs><linearGradient id="g" x1="0" y1="0" x2="32" y2="32" gradientUnits="userSpaceOnUse"><stop stop-color="#3b82f6"/><stop offset=".5" stop-color="#7c3aed"/><stop offset="1" stop-color="#a855f7"/></linearGradient><radialGradient id="c"><stop stop-color="#fff"/><stop offset=".6" stop-color="#93c5fd" stop-opacity=".4"/><stop offset="1" stop-color="#3b82f6" stop-opacity="0"/></radialGradient></defs><path d="M14.8 3.8C10 3.8 3.5 8.2 3.5 16s6.5 12.2 11.3 12.2Z" fill="url(#g)" opacity=".92"/><path d="M17.2 3.8C22 3.8 28.5 8.2 28.5 16s-6.5 12.2-11.3 12.2Z" fill="url(#g)" opacity=".82"/><path d="M5 9.7q3.6 1.2 9 .4M4.5 16q3.6 1.4 9 .5M5 22.3q3.6 1.1 9 .3M27 9.7q-3.6 1.2-9 .4M27.5 16q-3.6 1.4-9 .5M27 22.3q-3.6 1.1-9 .3" fill="none" stroke="#fff" stroke-width=".5" opacity=".22"/><line x1="9" y1="9" x2="16" y2="16" stroke="#fff" stroke-width=".3" opacity=".14"/><line x1="23" y1="9" x2="16" y2="16" stroke="#fff" stroke-width=".3" opacity=".14"/><line x1="9" y1="23" x2="16" y2="16" stroke="#fff" stroke-width=".3" opacity=".1"/><line x1="23" y1="23" x2="16" y2="16" stroke="#fff" stroke-width=".3" opacity=".1"/><circle cx="9" cy="9" r="1.1" fill="#c4b5fd" opacity=".8"/><circle cx="23" cy="9" r="1.1" fill="#c4b5fd" opacity=".8"/><circle cx="9" cy="23" r=".9" fill="#c4b5fd" opacity=".6"/><circle cx="23" cy="23" r=".9" fill="#c4b5fd" opacity=".6"/><circle cx="16" cy="16" r="2.2" fill="url(#c)"/><circle cx="16" cy="16" r="1" fill="#fff"/></svg>
